<?xml version="1.0" encoding="UTF-8" standalone="no" ?>
<!DOCTYPE svg PUBLIC "-//W3C//DTD SVG 1.1//EN" "http://www.w3.org/Graphics/SVG/1.1/DTD/svg11.dtd">
<svg xmlns="http://www.w3.org/2000/svg" xmlns:xlink="http://www.w3.org/1999/xlink" version="1.1" width="500" height="500" viewBox="0 0 500 500" xml:space="preserve">
<desc>Created with Fabric.js 5.3.0</desc>
<defs>
</defs>
<g transform="matrix(3.8129671148 0 0 3.8129671148 250.2575781867 250.7260367378)" id="X2AeJrMs1au4SI52O-ojz"  >
<path style="stroke: rgb(188,20,214); stroke-width: 0; stroke-dasharray: none; stroke-linecap: butt; stroke-dashoffset: 0; stroke-linejoin: miter; stroke-miterlimit: 4; fill: rgb(255,224,109); fill-rule: nonzero; opacity: 1;"  transform=" translate(0, 0)" d="M 0 -30.30303 C 16.72727 -30.30303 30.30303 -16.727269999999997 30.30303 0 C 30.30303 16.72727 16.727269999999997 30.30303 0 30.30303 C -16.72727 30.30303 -30.30303 16.727269999999997 -30.30303 0 C -30.30303 -16.72727 -16.727269999999997 -30.30303 0 -30.30303 z" stroke-linecap="round" />
</g>
<g transform="matrix(0.6305093657 0 0 2.2561932734 250.2575781867 66.130577844)" id="mXaKtMNRTS_rLWmLgEaG7"  >
<path style="stroke: rgb(42,126,205); stroke-width: 0; stroke-dasharray: none; stroke-linecap: butt; stroke-dashoffset: 0; stroke-linejoin: miter; stroke-miterlimit: 4; fill: rgb(255,224,109); fill-rule: nonzero; opacity: 1;"  transform=" translate(0, 0)" d="M -27.57576 -21.66667 C -27.57576 -24.93017 -18.10887 -27.57576 -6.430869999999999 -27.57576 L 8.881784197001252e-16 -27.57576 L 6.4308700000000005 -27.57576 L 6.4308700000000005 -27.57576 C 18.108870000000003 -27.57576 27.575760000000002 -24.93017 27.575760000000002 -21.66667 L 27.575760000000002 27.57576 L 16.60931 26.99372 L 16.60931 26.99372 C 5.63453 26.41124 -5.634519999999998 26.41124 -16.609299999999998 26.99372 L -27.57575 27.57576 z" stroke-linecap="round" />
</g>
<g transform="matrix(-0.4458374481 0.4458374481 -1.5953695633 -1.5953695633 381.286606306 381.1368018239)" id="Q8f9KioemKY4hdoOeW6b6"  >
<path style="stroke: rgb(42,126,205); stroke-width: 0; stroke-dasharray: none; stroke-linecap: butt; stroke-dashoffset: 0; stroke-linejoin: miter; stroke-miterlimit: 4; fill: rgb(255,224,109); fill-rule: nonzero; opacity: 1;"  transform=" translate(0, 0)" d="M -27.57576 -21.66667 C -27.57576 -24.93017 -18.10887 -27.57576 -6.430869999999999 -27.57576 L 8.881784197001252e-16 -27.57576 L 6.4308700000000005 -27.57576 L 6.4308700000000005 -27.57576 C 18.108870000000003 -27.57576 27.575760000000002 -24.93017 27.575760000000002 -21.66667 L 27.575760000000002 27.57576 L 16.60931 26.99372 L 16.60931 26.99372 C 5.63453 26.41124 -5.634519999999998 26.41124 -16.609299999999998 26.99372 L -27.57575 27.57576 z" stroke-linecap="round" />
</g>
<g transform="matrix(0 0.6305093658 -2.2561932734 0 434.0192290474 250.7260367378)" id="JDUuu5n_Yhm1d4eYxch3s"  >
<path style="stroke: rgb(42,126,205); stroke-width: 0; stroke-dasharray: none; stroke-linecap: butt; stroke-dashoffset: 0; stroke-linejoin: miter; stroke-miterlimit: 4; fill: rgb(255,224,109); fill-rule: nonzero; opacity: 1;"  transform=" translate(0, 0)" d="M -27.57576 -21.66667 C -27.57576 -24.93017 -18.10887 -27.57576 -6.430869999999999 -27.57576 L 8.881784197001252e-16 -27.57576 L 6.4308700000000005 -27.57576 L 6.4308700000000005 -27.57576 C 18.108870000000003 -27.57576 27.575760000000002 -24.93017 27.575760000000002 -21.66667 L 27.575760000000002 27.57576 L 16.60931 26.99372 L 16.60931 26.99372 C 5.63453 26.41124 -5.634519999999998 26.41124 -16.609299999999998 26.99372 L -27.57575 27.57576 z" stroke-linecap="round" />
</g>
<g transform="matrix(0 -0.6305093658 2.2561932734 0 65.9807709526 250.7260367378)" id="Qaz2UB2eHPktS9EC0TNKp"  >
<path style="stroke: rgb(42,126,205); stroke-width: 0; stroke-dasharray: none; stroke-linecap: butt; stroke-dashoffset: 0; stroke-linejoin: miter; stroke-miterlimit: 4; fill: rgb(255,224,109); fill-rule: nonzero; opacity: 1;"  transform=" translate(0, 0)" d="M -27.57576 -21.66667 C -27.57576 -24.93017 -18.10887 -27.57576 -6.430869999999999 -27.57576 L 8.881784197001252e-16 -27.57576 L 6.4308700000000005 -27.57576 L 6.4308700000000005 -27.57576 C 18.108870000000003 -27.57576 27.575760000000002 -24.93017 27.575760000000002 -21.66667 L 27.575760000000002 27.57576 L 16.60931 26.99372 L 16.60931 26.99372 C 5.63453 26.41124 -5.634519999999998 26.41124 -16.609299999999998 26.99372 L -27.57575 27.57576 z" stroke-linecap="round" />
</g>
<g transform="matrix(0.4458374481 -0.4458374481 1.5953695633 1.5953695633 120.4909985625 120.6408054539)" id="_FcUtVSKj20MatgQ6g4D8"  >
<path style="stroke: rgb(42,126,205); stroke-width: 0; stroke-dasharray: none; stroke-linecap: butt; stroke-dashoffset: 0; stroke-linejoin: miter; stroke-miterlimit: 4; fill: rgb(255,224,109); fill-rule: nonzero; opacity: 1;"  transform=" translate(0, 0)" d="M -27.57576 -21.66667 C -27.57576 -24.93017 -18.10887 -27.57576 -6.430869999999999 -27.57576 L 8.881784197001252e-16 -27.57576 L 6.4308700000000005 -27.57576 L 6.4308700000000005 -27.57576 C 18.108870000000003 -27.57576 27.575760000000002 -24.93017 27.575760000000002 -21.66667 L 27.575760000000002 27.57576 L 16.60931 26.99372 L 16.60931 26.99372 C 5.63453 26.41124 -5.634519999999998 26.41124 -16.609299999999998 26.99372 L -27.57575 27.57576 z" stroke-linecap="round" />
</g>
<g transform="matrix(-0.4458374481 -0.4458374481 1.5953695633 -1.5953695633 118.713391516 381.1368040019)" id="hCpDEqn3SOUSX1hby9ZR8"  >
<path style="stroke: rgb(42,126,205); stroke-width: 0; stroke-dasharray: none; stroke-linecap: butt; stroke-dashoffset: 0; stroke-linejoin: miter; stroke-miterlimit: 4; fill: rgb(255,224,109); fill-rule: nonzero; opacity: 1;"  transform=" translate(0, 0)" d="M -27.57576 -21.66667 C -27.57576 -24.93017 -18.10887 -27.57576 -6.430869999999999 -27.57576 L 8.881784197001252e-16 -27.57576 L 6.4308700000000005 -27.57576 L 6.4308700000000005 -27.57576 C 18.108870000000003 -27.57576 27.575760000000002 -24.93017 27.575760000000002 -21.66667 L 27.575760000000002 27.57576 L 16.60931 26.99372 L 16.60931 26.99372 C 5.63453 26.41124 -5.634519999999998 26.41124 -16.609299999999998 26.99372 L -27.57575 27.57576 z" stroke-linecap="round" />
</g>
<g transform="matrix(-0.6305093658 0 0 -2.2561932734 250.2575775163 433.8694245653)" id="8l7_z_dCavo_dEJ1gCIDK"  >
<path style="stroke: rgb(42,126,205); stroke-width: 0; stroke-dasharray: none; stroke-linecap: butt; stroke-dashoffset: 0; stroke-linejoin: miter; stroke-miterlimit: 4; fill: rgb(255,224,109); fill-rule: nonzero; opacity: 1;"  transform=" translate(0, 0)" d="M -27.57576 -21.66667 C -27.57576 -24.93017 -18.10887 -27.57576 -6.430869999999999 -27.57576 L 8.881784197001252e-16 -27.57576 L 6.4308700000000005 -27.57576 L 6.4308700000000005 -27.57576 C 18.108870000000003 -27.57576 27.575760000000002 -24.93017 27.575760000000002 -21.66667 L 27.575760000000002 27.57576 L 16.60931 26.99372 L 16.60931 26.99372 C 5.63453 26.41124 -5.634519999999998 26.41124 -16.609299999999998 26.99372 L -27.57575 27.57576 z" stroke-linecap="round" />
</g>
<g transform="matrix(0.4458374481 0.4458374481 -1.5953695633 1.5953695633 379.5090014375 120.6408054539)" id="BI48-EsN3CEIx4Pzc4mEf"  >
<path style="stroke: rgb(42,126,205); stroke-width: 0; stroke-dasharray: none; stroke-linecap: butt; stroke-dashoffset: 0; stroke-linejoin: miter; stroke-miterlimit: 4; fill: rgb(255,224,109); fill-rule: nonzero; opacity: 1;"  transform=" translate(0, 0)" d="M -27.57576 -21.66667 C -27.57576 -24.93017 -18.10887 -27.57576 -6.430869999999999 -27.57576 L 8.881784197001252e-16 -27.57576 L 6.4308700000000005 -27.57576 L 6.4308700000000005 -27.57576 C 18.108870000000003 -27.57576 27.575760000000002 -24.93017 27.575760000000002 -21.66667 L 27.575760000000002 27.57576 L 16.60931 26.99372 L 16.60931 26.99372 C 5.63453 26.41124 -5.634519999999998 26.41124 -16.609299999999998 26.99372 L -27.57575 27.57576 z" stroke-linecap="round" />
</g>
</svg>